<?xml version="1.0" encoding="UTF-8"?>
<svg id="katman_1" data-name="katman 1" xmlns="http://www.w3.org/2000/svg" viewBox="0 0 420 499.384">
  <defs>
    <style>
      .cls-1 {
        fill: red;
        fill-rule: evenodd;
      }
    </style>
  </defs>
  <path class="cls-1" d="m75.441,7.138c-18.148,83.458-16.326,163.075,0,239.904l28.59,12.181-.249,61.903C54.808,279.556,20.451,225.447,5.583,164.753-13.026,88.786,16.049,31.356,75.441,7.138"/>
  <path class="cls-1" d="m164.291,66.222h0c4.613-.115,8.482,3.565,8.598,8.177l5.964,238.089c.115,4.613-3.564,8.482-8.178,8.598h0c-4.613.115-8.482-3.565-8.598-8.177l-5.964-238.089c-.116-4.613,3.564-8.482,8.178-8.598m-56.906,24.074l.487,159.602c.071,23.395,8.288,51.221,25.119,79.556,25.231,42.477,41.97,54.879,55.687,50.964,10.914-3.115,20.698-17.364,20.634-46.738l-.467-214.546c-.114-52.528-19.313-99.364-40.304-109.138-36.927-17.193-61.334,21.82-61.156,80.299Z"/>
  <path class="cls-1" d="m250.205,11.489c-15.777,6.99-28.061,15.634-37.539,25.606l21.38,352.273,53.698-38.782L316.831.302c-17.461-.909-32.675.164-44.5,4.226l-16.905,260.538-5.22-253.577Z"/>
  <path class="cls-1" d="m322.299,1.296l-.249,321.695c25.241-21.451,49.92-51.059,73.836-91.735l-30.827,11.685,12.927-66.875,35.551-3.481,6.463-46.986-37.788-.746-3.232-57.428,35.302,9.944C395.654,29.714,363.467,7.184,322.299,1.296"/>
</svg>